<svg width="50" height="46" viewBox="0 0 50 46" fill="none" xmlns="http://www.w3.org/2000/svg">
<g filter="url(#filter0_d_9_30)">
<path fill-rule="evenodd" clip-rule="evenodd" d="M5.83331 16.25C6.3856 16.25 6.83331 16.6977 6.83331 17.25C6.83331 22.0681 8.7473 26.6889 12.1542 30.0958C15.5611 33.5027 20.1819 35.4167 25 35.4167C29.8181 35.4167 34.4388 33.5027 37.8458 30.0958C41.2527 26.6889 43.1666 22.0681 43.1666 17.25C43.1666 16.6977 43.6144 16.25 44.1666 16.25C44.7189 16.25 45.1666 16.6977 45.1666 17.25C45.1666 22.5985 43.042 27.728 39.26 31.51C35.478 35.292 30.3485 37.4167 25 37.4167C19.6514 37.4167 14.522 35.292 10.74 31.51C6.95801 27.728 4.83331 22.5985 4.83331 17.25C4.83331 16.6977 5.28103 16.25 5.83331 16.25Z" fill="url(#paint0_linear_9_30)"/>
<path fill-rule="evenodd" clip-rule="evenodd" d="M4.83331 17.25C4.83331 16.6977 5.28103 16.25 5.83331 16.25C8.48164 16.25 11.104 16.7716 13.5508 17.7851C15.9975 18.7986 18.2207 20.284 20.0933 22.1567C21.9659 24.0293 23.4514 26.2525 24.4649 28.6992C24.6619 29.1749 24.8403 29.6572 25 30.145C25.9764 27.1613 27.6452 24.4181 29.9067 22.1567C33.6886 18.3747 38.8181 16.25 44.1666 16.25C44.7189 16.25 45.1666 16.6977 45.1666 17.25C45.1666 17.8023 44.7189 18.25 44.1666 18.25C39.3485 18.25 34.7278 20.164 31.3209 23.5709C27.914 26.9778 26 31.5986 26 36.4167C26 36.969 25.5523 37.4167 25 37.4167C24.4477 37.4167 24 36.969 24 36.4167C24 34.031 23.5301 31.6687 22.6171 29.4646C21.7042 27.2605 20.366 25.2578 18.6791 23.5709C16.9922 21.884 14.9895 20.5458 12.7854 19.6329C10.5813 18.7199 8.21899 18.25 5.83331 18.25C5.28103 18.25 4.83331 17.8023 4.83331 17.25Z" fill="url(#paint1_linear_9_30)"/>
<path fill-rule="evenodd" clip-rule="evenodd" d="M25.6946 6.94737C25.6155 6.87087 25.5267 6.80993 25.4322 6.76466C25.2958 6.69927 25.1478 6.66673 25 6.66675C24.749 6.66678 24.4983 6.76077 24.3054 6.94737C22.2719 8.88973 20.6803 11.2471 19.6389 13.8593C18.5968 16.4733 18.1301 19.2811 18.2704 22.0916C18.298 22.6432 18.7674 23.068 19.319 23.0405C19.8706 23.013 20.2955 22.5435 20.2679 21.9919C20.1419 19.4683 20.561 16.9471 21.4967 14.6C22.3112 12.5571 23.5003 10.6878 25 9.08708C26.4997 10.6878 27.6888 12.5571 28.5033 14.6C29.439 16.9471 29.8581 19.4683 29.7321 21.9919C29.7045 22.5435 30.1294 23.013 30.681 23.0405C31.2326 23.068 31.702 22.6432 31.7296 22.0916C31.8699 19.2811 31.4032 16.4733 30.3611 13.8593C29.3197 11.2471 27.7281 8.88973 25.6946 6.94737Z" fill="url(#paint2_linear_9_30)"/>
</g>
<defs>
<filter id="filter0_d_9_30" x="-2" y="0" width="54" height="54" filterUnits="userSpaceOnUse" color-interpolation-filters="sRGB">
<feFlood flood-opacity="0" result="BackgroundImageFix"/>
<feColorMatrix in="SourceAlpha" type="matrix" values="0 0 0 0 0 0 0 0 0 0 0 0 0 0 0 0 0 0 127 0" result="hardAlpha"/>
<feOffset dy="4"/>
<feGaussianBlur stdDeviation="2"/>
<feComposite in2="hardAlpha" operator="out"/>
<feColorMatrix type="matrix" values="0 0 0 0 0 0 0 0 0 0 0 0 0 0 0 0 0 0 0.25 0"/>
<feBlend mode="normal" in2="BackgroundImageFix" result="effect1_dropShadow_9_30"/>
<feBlend mode="normal" in="SourceGraphic" in2="effect1_dropShadow_9_30" result="shape"/>
</filter>
<linearGradient id="paint0_linear_9_30" x1="4.83331" y1="26.8333" x2="45.1666" y2="26.8333" gradientUnits="userSpaceOnUse">
<stop stop-color="#2AF598"/>
<stop offset="1" stop-color="#009EFD"/>
</linearGradient>
<linearGradient id="paint1_linear_9_30" x1="4.83331" y1="26.8333" x2="45.1666" y2="26.8333" gradientUnits="userSpaceOnUse">
<stop stop-color="#2AF598"/>
<stop offset="1" stop-color="#009EFD"/>
</linearGradient>
<linearGradient id="paint2_linear_9_30" x1="18.246" y1="14.8543" x2="31.754" y2="14.8543" gradientUnits="userSpaceOnUse">
<stop stop-color="#2AF598"/>
<stop offset="1" stop-color="#009EFD"/>
</linearGradient>
</defs>
</svg>
