<svg width="228" height="46" viewBox="0 0 228 46" fill="none" xmlns="http://www.w3.org/2000/svg">
<path fill-rule="evenodd" clip-rule="evenodd" d="M3.83337 16.25C4.38566 16.25 4.83337 16.6977 4.83337 17.25C4.83337 22.0681 6.74736 26.6889 10.1543 30.0958C13.5612 33.5027 18.1819 35.4167 23 35.4167C27.8181 35.4167 32.4389 33.5027 35.8458 30.0958C39.2527 26.6889 41.1667 22.0681 41.1667 17.25C41.1667 16.6977 41.6144 16.25 42.1667 16.25C42.719 16.25 43.1667 16.6977 43.1667 17.25C43.1667 22.5985 41.042 27.728 37.26 31.51C33.478 35.292 28.3486 37.4167 23 37.4167C17.6515 37.4167 12.522 35.292 8.74005 31.51C4.95807 27.728 2.83337 22.5985 2.83337 17.25C2.83337 16.6977 3.28109 16.25 3.83337 16.25Z" fill="url(#paint0_linear_17_302)"/>
<path fill-rule="evenodd" clip-rule="evenodd" d="M2.83337 17.25C2.83337 16.6977 3.28109 16.25 3.83337 16.25C6.4817 16.25 9.10409 16.7716 11.5508 17.7851C13.9976 18.7986 16.2207 20.284 18.0934 22.1567C19.966 24.0293 21.4515 26.2525 22.4649 28.6992C22.662 29.1749 22.8404 29.6572 23 30.145C23.9764 27.1613 25.6453 24.4181 27.9067 22.1567C31.6887 18.3747 36.8182 16.25 42.1667 16.25C42.719 16.25 43.1667 16.6977 43.1667 17.25C43.1667 17.8023 42.719 18.25 42.1667 18.25C37.3486 18.25 32.7278 20.164 29.3209 23.5709C25.914 26.9778 24 31.5986 24 36.4167C24 36.969 23.5523 37.4167 23 37.4167C22.4478 37.4167 22 36.969 22 36.4167C22 34.031 21.5301 31.6687 20.6172 29.4646C19.7042 27.2605 18.3661 25.2578 16.6791 23.5709C14.9922 21.884 12.9895 20.5458 10.7855 19.6329C8.58137 18.7199 6.21905 18.25 3.83337 18.25C3.28109 18.25 2.83337 17.8023 2.83337 17.25Z" fill="url(#paint1_linear_17_302)"/>
<path fill-rule="evenodd" clip-rule="evenodd" d="M23.6947 6.94737C23.6156 6.87087 23.5268 6.80993 23.4322 6.76466C23.2958 6.69927 23.1479 6.66673 23.0001 6.66675C22.749 6.66678 22.4984 6.76077 22.3054 6.94737C20.2719 8.88973 18.6804 11.2471 17.639 13.8593C16.5969 16.4733 16.1301 19.2811 16.2705 22.0916C16.298 22.6432 16.7675 23.068 17.3191 23.0405C17.8707 23.013 18.2955 22.5435 18.268 21.9919C18.142 19.4683 18.5611 16.9471 19.4968 14.6C20.3112 12.5571 21.5004 10.6878 23.0001 9.08708C24.4997 10.6878 25.6889 12.5571 26.5033 14.6C27.439 16.9471 27.8582 19.4683 27.7321 21.9919C27.7046 22.5435 28.1294 23.013 28.681 23.0405C29.2326 23.068 29.7021 22.6432 29.7297 22.0916C29.87 19.2811 29.4032 16.4733 28.3611 13.8593C27.3197 11.2471 25.7282 8.88973 23.6947 6.94737Z" fill="url(#paint2_linear_17_302)"/>
<path d="M60.3084 34.692C58.6444 34.692 57.0444 34.4253 55.5084 33.892C53.9937 33.3373 52.8204 32.6333 51.9884 31.78L52.9164 29.956C53.7057 30.724 54.7617 31.3747 56.0844 31.908C57.4284 32.42 58.8364 32.676 60.3084 32.676C61.7164 32.676 62.8577 32.5053 63.7324 32.164C64.6284 31.8013 65.279 31.3213 65.6844 30.724C66.111 30.1267 66.3244 29.4653 66.3244 28.74C66.3244 27.8653 66.0684 27.1613 65.5564 26.628C65.0657 26.0947 64.415 25.6787 63.6044 25.38C62.7937 25.06 61.8977 24.7827 60.9164 24.548C59.935 24.3133 58.9537 24.068 57.9724 23.812C56.991 23.5347 56.0844 23.172 55.2524 22.724C54.4417 22.276 53.7804 21.6893 53.2684 20.964C52.7777 20.2173 52.5324 19.2467 52.5324 18.052C52.5324 16.9427 52.8204 15.9293 53.3964 15.012C53.9937 14.0733 54.9004 13.3267 56.1164 12.772C57.3324 12.196 58.8897 11.908 60.7884 11.908C62.047 11.908 63.295 12.0893 64.5324 12.452C65.7697 12.7933 66.8364 13.2733 67.7324 13.892L66.9324 15.78C65.9724 15.14 64.9484 14.6707 63.8604 14.372C62.7937 14.0733 61.759 13.924 60.7564 13.924C59.4124 13.924 58.303 14.1053 57.4284 14.468C56.5537 14.8307 55.903 15.3213 55.4764 15.94C55.071 16.5373 54.8684 17.22 54.8684 17.988C54.8684 18.8627 55.1137 19.5667 55.6044 20.1C56.1164 20.6333 56.7777 21.0493 57.5884 21.348C58.4204 21.6467 59.327 21.9133 60.3084 22.148C61.2897 22.3827 62.2604 22.6387 63.2204 22.916C64.2017 23.1933 65.0977 23.556 65.9084 24.004C66.7404 24.4307 67.4017 25.0067 67.8924 25.732C68.4044 26.4573 68.6604 27.4067 68.6604 28.58C68.6604 29.668 68.3617 30.6813 67.7644 31.62C67.167 32.5373 66.2497 33.284 65.0124 33.86C63.7964 34.4147 62.2284 34.692 60.3084 34.692ZM83.8679 34.5V30.788L83.7719 30.18V23.972C83.7719 22.5427 83.3665 21.444 82.5559 20.676C81.7665 19.908 80.5825 19.524 79.0039 19.524C77.9159 19.524 76.8812 19.7053 75.8999 20.068C74.9185 20.4307 74.0865 20.9107 73.4039 21.508L72.3799 19.812C73.2332 19.0867 74.2572 18.532 75.4519 18.148C76.6465 17.7427 77.9052 17.54 79.2279 17.54C81.4039 17.54 83.0785 18.084 84.2519 19.172C85.4465 20.2387 86.0439 21.8707 86.0439 24.068V34.5H83.8679ZM78.0759 34.66C76.8172 34.66 75.7185 34.4573 74.7799 34.052C73.8625 33.6253 73.1585 33.0493 72.6679 32.324C72.1772 31.5773 71.9319 30.724 71.9319 29.764C71.9319 28.8893 72.1345 28.1 72.5399 27.396C72.9665 26.6707 73.6492 26.0947 74.5879 25.668C75.5479 25.22 76.8279 24.996 78.4279 24.996H84.2199V26.692H78.4919C76.8705 26.692 75.7399 26.98 75.0999 27.556C74.4812 28.132 74.1719 28.8467 74.1719 29.7C74.1719 30.66 74.5452 31.428 75.2919 32.004C76.0385 32.58 77.0839 32.868 78.4279 32.868C79.7079 32.868 80.8065 32.58 81.7239 32.004C82.6625 31.4067 83.3452 30.5533 83.7719 29.444L84.2839 31.012C83.8572 32.1213 83.1105 33.0067 82.0439 33.668C80.9985 34.3293 79.6759 34.66 78.0759 34.66ZM113.207 17.54C114.572 17.54 115.756 17.8067 116.759 18.34C117.783 18.852 118.572 19.6413 119.127 20.708C119.703 21.7747 119.991 23.1187 119.991 24.74V34.5H117.719V24.964C117.719 23.1933 117.292 21.86 116.439 20.964C115.607 20.0467 114.423 19.588 112.887 19.588C111.735 19.588 110.732 19.8333 109.879 20.324C109.047 20.7933 108.396 21.4867 107.927 22.404C107.479 23.3 107.255 24.388 107.255 25.668V34.5H104.983V24.964C104.983 23.1933 104.556 21.86 103.703 20.964C102.85 20.0467 101.655 19.588 100.119 19.588C98.9882 19.588 97.9962 19.8333 97.1429 20.324C96.2895 20.7933 95.6282 21.4867 95.1589 22.404C94.7109 23.3 94.4869 24.388 94.4869 25.668V34.5H92.2149V17.7H94.3909V22.244L94.0389 21.444C94.5509 20.228 95.3722 19.2787 96.5029 18.596C97.6549 17.892 99.0095 17.54 100.567 17.54C102.21 17.54 103.607 17.956 104.759 18.788C105.911 19.5987 106.658 20.8253 106.999 22.468L106.103 22.116C106.594 20.7507 107.458 19.652 108.695 18.82C109.954 17.9667 111.458 17.54 113.207 17.54Z" fill="url(#paint3_linear_17_302)"/>
<path d="M132.808 34.692C131.144 34.692 129.544 34.4253 128.008 33.892C126.494 33.3373 125.32 32.6333 124.488 31.78L125.416 29.956C126.206 30.724 127.262 31.3747 128.584 31.908C129.928 32.42 131.336 32.676 132.808 32.676C134.216 32.676 135.358 32.5053 136.232 32.164C137.128 31.8013 137.779 31.3213 138.184 30.724C138.611 30.1267 138.824 29.4653 138.824 28.74C138.824 27.8653 138.568 27.1613 138.056 26.628C137.566 26.0947 136.915 25.6787 136.104 25.38C135.294 25.06 134.398 24.7827 133.416 24.548C132.435 24.3133 131.454 24.068 130.472 23.812C129.491 23.5347 128.584 23.172 127.752 22.724C126.942 22.276 126.28 21.6893 125.768 20.964C125.278 20.2173 125.032 19.2467 125.032 18.052C125.032 16.9427 125.32 15.9293 125.896 15.012C126.494 14.0733 127.4 13.3267 128.616 12.772C129.832 12.196 131.39 11.908 133.288 11.908C134.547 11.908 135.795 12.0893 137.032 12.452C138.27 12.7933 139.336 13.2733 140.232 13.892L139.432 15.78C138.472 15.14 137.448 14.6707 136.36 14.372C135.294 14.0733 134.259 13.924 133.256 13.924C131.912 13.924 130.803 14.1053 129.928 14.468C129.054 14.8307 128.403 15.3213 127.976 15.94C127.571 16.5373 127.368 17.22 127.368 17.988C127.368 18.8627 127.614 19.5667 128.104 20.1C128.616 20.6333 129.278 21.0493 130.088 21.348C130.92 21.6467 131.827 21.9133 132.808 22.148C133.79 22.3827 134.76 22.6387 135.72 22.916C136.702 23.1933 137.598 23.556 138.408 24.004C139.24 24.4307 139.902 25.0067 140.392 25.732C140.904 26.4573 141.16 27.4067 141.16 28.58C141.16 29.668 140.862 30.6813 140.264 31.62C139.667 32.5373 138.75 33.284 137.512 33.86C136.296 34.4147 134.728 34.692 132.808 34.692ZM151.152 34.66C149.573 34.66 148.357 34.2333 147.504 33.38C146.651 32.5267 146.224 31.3213 146.224 29.764V13.988H148.496V29.636C148.496 30.6173 148.741 31.3747 149.232 31.908C149.744 32.4413 150.469 32.708 151.408 32.708C152.411 32.708 153.243 32.42 153.904 31.844L154.704 33.476C154.256 33.8813 153.712 34.18 153.072 34.372C152.453 34.564 151.813 34.66 151.152 34.66ZM143.216 19.588V17.7H153.616V19.588H143.216ZM165.784 34.66C164.355 34.66 163.107 34.3933 162.04 33.86C160.973 33.3267 160.141 32.5267 159.544 31.46C158.968 30.3933 158.68 29.06 158.68 27.46V17.7H160.952V27.204C160.952 28.996 161.389 30.3507 162.264 31.268C163.16 32.164 164.408 32.612 166.008 32.612C167.181 32.612 168.195 32.3773 169.048 31.908C169.923 31.4173 170.584 30.7133 171.032 29.796C171.501 28.8787 171.736 27.78 171.736 26.5V17.7H174.008V34.5H171.832V29.892L172.184 30.724C171.651 31.9613 170.819 32.932 169.688 33.636C168.579 34.3187 167.277 34.66 165.784 34.66ZM187.028 34.66C185.428 34.66 183.988 34.2973 182.708 33.572C181.449 32.8467 180.457 31.844 179.732 30.564C179.007 29.2627 178.644 27.7693 178.644 26.084C178.644 24.3773 179.007 22.884 179.732 21.604C180.457 20.324 181.449 19.332 182.708 18.628C183.988 17.9027 185.428 17.54 187.028 17.54C188.5 17.54 189.812 17.8707 190.964 18.532C192.137 19.1933 193.065 20.164 193.748 21.444C194.452 22.7027 194.804 24.2493 194.804 26.084C194.804 27.8973 194.463 29.444 193.78 30.724C193.097 32.004 192.169 32.9853 190.996 33.668C189.844 34.3293 188.521 34.66 187.028 34.66ZM187.188 32.644C188.383 32.644 189.449 32.3773 190.388 31.844C191.348 31.2893 192.095 30.5213 192.628 29.54C193.183 28.5373 193.46 27.3853 193.46 26.084C193.46 24.7613 193.183 23.6093 192.628 22.628C192.095 21.6467 191.348 20.8893 190.388 20.356C189.449 19.8013 188.383 19.524 187.188 19.524C186.015 19.524 184.959 19.8013 184.02 20.356C183.081 20.8893 182.335 21.6467 181.78 22.628C181.225 23.6093 180.948 24.7613 180.948 26.084C180.948 27.3853 181.225 28.5373 181.78 29.54C182.335 30.5213 183.081 31.2893 184.02 31.844C184.959 32.3773 186.015 32.644 187.188 32.644ZM193.524 34.5V29.444L193.748 26.052L193.428 22.66V10.756H195.7V34.5H193.524ZM202.027 34.5V17.7H204.299V34.5H202.027ZM203.179 13.988C202.71 13.988 202.315 13.828 201.995 13.508C201.675 13.188 201.515 12.804 201.515 12.356C201.515 11.908 201.675 11.5347 201.995 11.236C202.315 10.916 202.71 10.756 203.179 10.756C203.649 10.756 204.043 10.9053 204.363 11.204C204.683 11.5027 204.843 11.876 204.843 12.324C204.843 12.7933 204.683 13.188 204.363 13.508C204.065 13.828 203.67 13.988 203.179 13.988ZM217.469 34.66C215.848 34.66 214.386 34.2973 213.085 33.572C211.805 32.8253 210.792 31.812 210.045 30.532C209.298 29.2307 208.925 27.748 208.925 26.084C208.925 24.3987 209.298 22.916 210.045 21.636C210.792 20.356 211.805 19.3533 213.085 18.628C214.365 17.9027 215.826 17.54 217.469 17.54C219.133 17.54 220.605 17.9027 221.885 18.628C223.186 19.3533 224.2 20.356 224.925 21.636C225.672 22.916 226.045 24.3987 226.045 26.084C226.045 27.748 225.672 29.2307 224.925 30.532C224.2 31.812 223.186 32.8253 221.885 33.572C220.584 34.2973 219.112 34.66 217.469 34.66ZM217.469 32.644C218.685 32.644 219.762 32.3773 220.701 31.844C221.64 31.2893 222.376 30.5213 222.909 29.54C223.464 28.5373 223.741 27.3853 223.741 26.084C223.741 24.7613 223.464 23.6093 222.909 22.628C222.376 21.6467 221.64 20.8893 220.701 20.356C219.762 19.8013 218.696 19.524 217.501 19.524C216.306 19.524 215.24 19.8013 214.301 20.356C213.362 20.8893 212.616 21.6467 212.061 22.628C211.506 23.6093 211.229 24.7613 211.229 26.084C211.229 27.3853 211.506 28.5373 212.061 29.54C212.616 30.5213 213.362 31.2893 214.301 31.844C215.24 32.3773 216.296 32.644 217.469 32.644Z" fill="white"/>
<defs>
<linearGradient id="paint0_linear_17_302" x1="2.83337" y1="26.8333" x2="43.1667" y2="26.8333" gradientUnits="userSpaceOnUse">
<stop stop-color="#2AF598"/>
<stop offset="1" stop-color="#009EFD"/>
</linearGradient>
<linearGradient id="paint1_linear_17_302" x1="2.83337" y1="26.8333" x2="43.1667" y2="26.8333" gradientUnits="userSpaceOnUse">
<stop stop-color="#2AF598"/>
<stop offset="1" stop-color="#009EFD"/>
</linearGradient>
<linearGradient id="paint2_linear_17_302" x1="16.2461" y1="14.8543" x2="29.754" y2="14.8543" gradientUnits="userSpaceOnUse">
<stop stop-color="#2AF598"/>
<stop offset="1" stop-color="#009EFD"/>
</linearGradient>
<linearGradient id="paint3_linear_17_302" x1="50" y1="23" x2="228" y2="23" gradientUnits="userSpaceOnUse">
<stop stop-color="#2AF598"/>
<stop offset="0.390625" stop-color="#009EFD"/>
</linearGradient>
</defs>
</svg>
